<svg width="20" height="15" viewBox="0 0 20 15" fill="none" xmlns="http://www.w3.org/2000/svg">
<path d="M16.7444 0.0383501C16.6796 0.0615101 16.5545 0.112464 16.4665 0.154152C16.3785 0.200473 14.1412 2.39608 11.4963 5.03638L6.69282 9.83985L4.84925 8.00091C3.58932 6.74562 2.94546 6.13418 2.80186 6.06007C2.48688 5.90258 1.98198 5.88405 1.62068 6.02301C1.38444 6.11102 1.26401 6.20829 0.78227 6.6854C0.11525 7.35705 0.00871147 7.5377 0.00407938 8.0565C-0.0051848 8.72352 -0.176572 8.51507 3.14464 11.8502C5.16423 13.879 6.17402 14.8564 6.29909 14.9166C6.53533 15.0278 6.85031 15.0278 7.08654 14.9166C7.21624 14.8564 9.09687 13.0036 13.2055 8.88564C19.8294 2.25249 19.3199 2.81297 19.3106 2.12742C19.306 1.60863 19.1995 1.42798 18.5324 0.756324C18.06 0.283851 17.9303 0.181945 17.7033 0.098567C17.43 -0.00333881 16.9807 -0.0311308 16.7444 0.0383501Z" fill="white"/>
</svg>