<svg width="40" height="40" viewBox="0 0 40 40" version="1.1" xmlns="http://www.w3.org/2000/svg" xmlns:xlink="http://www.w3.org/1999/xlink">
	<path class="cls-1" d="M24.73,23.76,35.66,34.68a1,1,0,0,1,0,1.43,1,1,0,0,1-1.43,0L23.3,25.19a1,1,0,0,1,0-1.43A1,1,0,0,1,24.73,23.76Z" fill="#ffffff" />
	<path class="cls-1" d="M5.68,4.7,19.81,18.83a1.83,1.83,0,0,1,.13.16L34.23,4.7a1,1,0,0,1,1.43,0,1,1,0,0,1,0,1.44l-30,30a1,1,0,0,1-1.43-1.43L18.54,20.39a1,1,0,0,1-.17-.13L4.25,6.14A1,1,0,0,1,5.68,4.7Z" fill="#ffffff" />
	<rect width="40" height="40" style="fill:none" />
</svg>
